<svg xmlns="http://www.w3.org/2000/svg" width="60.455" height="60.455" viewBox="0 0 60.455 60.455"><path d="M2.35-.941V-8.6H14.413L24.2-7.327l.71-1.561-7.947-5.96L8.452-23.505l5.393-5.251,8.515,8.515,6.1,7.805,1.561-.71-1.277-9.792V-35h7.663v12.063l-1.277,9.792,1.561.71,6.1-7.805,8.515-8.515L56.7-23.505l-8.515,8.657-7.947,5.96.71,1.561L50.742-8.6H62.805V-.941H50.742L40.95-2.076l-.71,1.419,7.947,6.1L56.7,13.96,51.31,19.353,42.8,10.838l-6.1-7.947-1.561.71,1.277,9.792V25.455H28.746V13.392L30.023,3.6l-1.561-.71-6.1,7.947-8.515,8.515L8.452,13.96l8.515-8.515,7.947-6.1L24.2-2.076,14.413-.941Z" transform="translate(-2.35 35)" fill="#fff"/></svg>