<svg xmlns="http://www.w3.org/2000/svg" xmlns:xlink="http://www.w3.org/1999/xlink" width="110.36" height="54.676" viewBox="0 0 110.36 54.676">
  <defs>
    <linearGradient id="linear-gradient" x1="0.5" x2="0.5" y2="1" gradientUnits="objectBoundingBox">
      <stop offset="0" stop-color="#007d47"/>
      <stop offset="1" stop-color="#00f56e"/>
    </linearGradient>
  </defs>
  <g id="Group_2" data-name="Group 2" transform="translate(646.07 348.676)">
    <path id="Path_1" data-name="Path 1" d="M20.522-2.945A1.832,1.832,0,0,1,19.034-.992l-.868.217V0H26.1V-.775l-.868-.217a1.832,1.832,0,0,1-1.488-1.953V-20.708a1.832,1.832,0,0,1,1.488-1.953l.868-.217v-.775h-5.58L13.981-2.511,7.068-23.684.93-23.653v.775l.868.217c.992.248,2.108.93,2.108,1.953V-2.945A1.832,1.832,0,0,1,2.418-.992L1.55-.775V0H7.037V-.775L6.169-.992A1.832,1.832,0,0,1,4.681-2.945V-21.762L11.842,0h2.945l-.4-1.271,6.138-19.871Zm17.546-8.277c.062,1.023-.434,1.55-1.488,1.55H30.349c.217-2.945,1.116-6.479,4.247-6.479C36.673-16.151,37.82-14.632,38.068-11.222ZM37.727-8.9c2.666,0,3.937-1.426,3.255-3.689-.806-2.7-2.7-4.34-6.262-4.34-4.247,0-7.688,2.325-7.688,8.525,0,6.169,3.441,8.525,7.688,8.525,3.038,0,5.89-1.209,7.068-4.123l-.682-.527A6.192,6.192,0,0,1,35.154-.651c-4.464,0-4.836-4.867-4.836-8.246Zm17.453.5c0,5.611-2.945,7.75-4.929,7.75S46.314-2.79,46.314-8.4s1.953-7.75,3.937-7.75S55.18-14.012,55.18-8.4Zm0-4.495a6.151,6.151,0,0,0-5.7-4.03c-3.007,0-6.448,2.325-6.448,8.525,0,6.169,3.441,8.525,6.448,8.525a6.2,6.2,0,0,0,5.7-4.03V0h5.58V-.775l-.868-.217A1.832,1.832,0,0,1,58.4-2.945V-24.676l-5.58,1.023v.775l.868.217a1.832,1.832,0,0,1,1.488,1.953Zm7.378-2.015a1.832,1.832,0,0,1,1.488,1.953V-2.945A1.832,1.832,0,0,1,62.558-.992l-.868.217V0h7.936V-.775l-.868-.217A1.832,1.832,0,0,1,67.27-2.945V-16.926L61.69-15.9v.775ZM62.5-21.173a2.382,2.382,0,0,0,2.418,2.418,2.369,2.369,0,0,0,2.356-2.418,2.355,2.355,0,0,0-2.356-2.356A2.369,2.369,0,0,0,62.5-21.173Zm16.368,5.022A4.228,4.228,0,0,1,82.832-13.8a2.312,2.312,0,0,0-.744-.124,1.57,1.57,0,0,0-1.705,1.674,1.635,1.635,0,0,0,1.736,1.7,1.757,1.757,0,0,0,1.829-1.953c0-1.984-1.767-4.433-5.921-4.433-4.03,0-7.471,2.325-7.471,8.525C70.556-2.232,74,.124,78.244.124c3.038,0,5.89-1.209,7.068-4.123l-.682-.527A6.192,6.192,0,0,1,78.678-.651c-2.883,0-4.836-2.139-4.836-7.6C73.842-11.315,74.462-16.151,78.864-16.151ZM92.442-.651c-1.922,0-2.6-1.736-2.6-3.658,0-4.464,3.689-4.743,6.7-4.774v4.867A4.225,4.225,0,0,1,92.442-.651Zm4.092-9.207c-3.379.031-9.982.4-9.982,5.7,0,2.449,1.426,4.278,4.867,4.278a6.061,6.061,0,0,0,5.27-2.387C97.061-.4,98.146,0,99.634,0c1.674,0,2.821-.527,2.821-2.542h-.775c0,1.488-.837,1.767-1.209,1.767-.62,0-.713-.806-.713-3.193v-9.424c0-2.511-1.581-3.534-4.433-3.534-3.937,0-5.859,1.984-5.859,4.278,0,1.55.9,2.108,1.829,2.108a1.635,1.635,0,0,0,1.736-1.7,1.57,1.57,0,0,0-1.705-1.674,1.522,1.522,0,0,0-.837.186c.558-1.488,1.674-2.418,3.875-2.418,1.86,0,2.17.682,2.17,3.317Zm12.4-14.818-5.58,1.023v.775l.868.217a1.832,1.832,0,0,1,1.488,1.953V-2.945a1.832,1.832,0,0,1-1.488,1.953l-.868.217V0h7.936V-.775l-.868-.217a1.832,1.832,0,0,1-1.488-1.953ZM11.439,5.122c1.984,0,3.937,2.139,3.937,6.2s-1.953,6.2-3.937,6.2H6.51V5.122ZM12.214,18.3a6.586,6.586,0,0,0,6.448-6.975,6.567,6.567,0,0,0-6.448-6.975H.93v.775l.868.217A1.832,1.832,0,0,1,3.286,7.292V25.055A1.832,1.832,0,0,1,1.8,27.008l-.868.217V28H8.866v-.775L8,27.008A1.832,1.832,0,0,1,6.51,25.055V18.3Zm7.936-5.208a1.853,1.853,0,0,1,1.488,1.953V25.055a1.832,1.832,0,0,1-1.488,1.953l-.868.217V28h7.936v-.775l-.868-.217a1.832,1.832,0,0,1-1.488-1.953V21.18c0-5.208,1.674-9.331,4.929-9.331a2.658,2.658,0,0,1,2.79,2.48,1.62,1.62,0,0,0-.961-.248,1.57,1.57,0,0,0-1.7,1.674,1.635,1.635,0,0,0,1.736,1.7c.93,0,1.829-.558,1.829-2.17,0-1.767-1.054-4.216-3.875-4.216-2.325,0-3.875,1.674-4.743,4.34v-4.34L19.282,12.1v.775ZM34.41,19.6c0,6.169,3.441,8.525,7.688,8.525s7.688-2.356,7.688-8.525c0-6.2-3.441-8.525-7.688-8.525S34.41,13.4,34.41,19.6Zm3.286,0c0-5.611,1.953-7.75,4.4-7.75s4.4,2.139,4.4,7.75-1.953,7.75-4.4,7.75S37.7,25.21,37.7,19.6Zm13.578-6.51a1.853,1.853,0,0,1,1.488,1.953V25.055a1.832,1.832,0,0,1-1.488,1.953l-.868.217V28h7.936v-.775l-.868-.217a1.832,1.832,0,0,1-1.488-1.953V21.18c0-5.208,2.263-9.331,5.673-9.331,1.271,0,1.581.558,1.581,3.317v9.889a1.832,1.832,0,0,1-1.488,1.953l-.868.217V28H68.82v-.775l-.868-.217a1.832,1.832,0,0,1-1.488-1.953V14.608c0-2.511-1.612-3.534-4.03-3.534-3.317,0-5.394,1.922-6.448,4.9v-4.9L50.406,12.1v.775Zm29.2,3.689c.062,1.023-.434,1.55-1.488,1.55H72.757c.217-2.945,1.116-6.479,4.247-6.479C79.081,11.849,80.228,13.368,80.476,16.778ZM80.135,19.1c2.666,0,3.937-1.426,3.255-3.689-.806-2.7-2.7-4.34-6.262-4.34-4.247,0-7.688,2.325-7.688,8.525,0,6.169,3.441,8.525,7.688,8.525,3.038,0,5.89-1.209,7.068-4.123l-.682-.527a6.192,6.192,0,0,1-5.952,3.875c-4.464,0-4.836-4.867-4.836-8.246Z" transform="translate(-647 -324)" fill="#fff"/>
    <path id="Path_2" data-name="Path 2" d="M10.5,0A10.5,10.5,0,1,1,0,10.5,10.5,10.5,0,0,1,10.5,0Z" transform="translate(-558 -315)" fill="url(#linear-gradient)"/>
  </g>
</svg>
