<svg xmlns="http://www.w3.org/2000/svg" width="945" height="692" viewBox="0 0 945 692">
    <g transform="translate(-488 -194)"><path d="M141,.5H0v-1H141Z" transform="translate(890.5 228.5)" fill="#707070"/><path d="M.3,104.4l-.594-.8,141-104,.594.8Z" transform="translate(890.5 228.5)" fill="#707070"/><path d="M.414,208.281l-.828-.561,141-208,.828.561Z" transform="translate(890.5 228.5)" fill="#707070"/><path d="M.456,312.206l-.911-.412,141-312,.911.412Z" transform="translate(890.5 228.5)" fill="#707070"/><path d="M.474,416.161l-.947-.321,141-416,.947.321Z" transform="translate(890.5 228.5)" fill="#707070"/><path d="M.483,520.131l-.965-.262,141-520,.965.262Z" transform="translate(890.5 228.5)" fill="#707070"/><path d="M.488,624.11l-.975-.22,141-624,.975.22Z" transform="translate(890.5 228.5)" fill="#707070"/><g transform="translate(0 103.5)"><path d="M141,.5H0v-1H141Z" transform="translate(890.5 228.5)" fill="#707070"/><path d="M.3,104.4l-.594-.8,141-104,.594.8Z" transform="translate(890.5 228.5)" fill="#707070"/><path d="M.414,208.281l-.828-.561,141-208,.828.561Z" transform="translate(890.5 228.5)" fill="#707070"/><path d="M.456,312.206l-.911-.412,141-312,.911.412Z" transform="translate(890.5 228.5)" fill="#707070"/><path d="M.474,416.161l-.947-.321,141-416,.947.321Z" transform="translate(890.5 228.5)" fill="#707070"/><path d="M.483,520.131l-.965-.262,141-520,.965.262Z" transform="translate(890.5 228.5)" fill="#707070"/></g>
        <g transform="translate(0 311.5)"><path d="M141,.5H0v-1H141Z" transform="translate(890.5 228.5)" fill="#707070"/><path d="M.3,104.4l-.594-.8,141-104,.594.8Z" transform="translate(890.5 228.5)" fill="#707070"/><path d="M.414,208.281l-.828-.561,141-208,.828.561Z" transform="translate(890.5 228.5)" fill="#707070"/><path d="M.456,312.206l-.911-.412,141-312,.911.412Z" transform="translate(890.5 228.5)" fill="#707070"/></g>
        <g transform="translate(0 415.5)"><path d="M141,.5H0v-1H141Z" transform="translate(890.5 228.5)" fill="#707070"/><path d="M.3,104.4l-.594-.8,141-104,.594.8Z" transform="translate(890.5 228.5)" fill="#707070"/><path d="M.414,208.281l-.828-.561,141-208,.828.561Z" transform="translate(890.5 228.5)" fill="#707070"/></g>
        <g transform="translate(0 519.5)"><path d="M141,.5H0v-1H141Z" transform="translate(890.5 228.5)" fill="#707070"/><path d="M.3,104.4l-.594-.8,141-104,.594.8Z" transform="translate(890.5 228.5)" fill="#707070"/></g>
        <g transform="translate(890.5 228.5)"><path d="M141,.5H0v-1H141Z" fill="#707070"/><path d="M140.7,104.4-.3.4.3-.4l141,104Z" fill="#707070"/><path d="M140.586,208.281l-141-208L.414-.281l141,208Z" fill="#707070"/><path d="M140.544,312.206l-141-312L.456-.206l141,312Z" fill="#707070"/><path d="M140.526,416.161l-141-416L.474-.161l141,416Z" fill="#707070"/><path d="M140.517,520.131l-141-520L.483-.131l141,520Z" fill="#707070"/><path d="M140.512,624.11-.488.11.488-.11l141,624Z" fill="#707070"/><g transform="translate(0 103.5)"><path d="M141,.5H0v-1H141Z" fill="#707070"/><path d="M140.7,104.4-.3.4.3-.4l141,104Z" fill="#707070"/><path d="M140.586,208.281l-141-208L.414-.281l141,208Z" fill="#707070"/><path d="M140.544,312.206l-141-312L.456-.206l141,312Z" fill="#707070"/><path d="M140.526,416.161l-141-416L.474-.161l141,416Z" fill="#707070"/><path d="M140.517,520.131l-141-520L.483-.131l141,520Z" fill="#707070"/></g>
            <g transform="translate(0 311.5)"><path d="M141,.5H0v-1H141Z" fill="#707070"/><path d="M140.7,104.4-.3.4.3-.4l141,104Z" fill="#707070"/><path d="M140.586,208.281l-141-208L.414-.281l141,208Z" fill="#707070"/><path d="M140.544,312.206l-141-312L.456-.206l141,312Z" fill="#707070"/></g>
            <g transform="translate(0 415.5)"><path d="M141,.5H0v-1H141Z" fill="#707070"/><path d="M140.7,104.4-.3.4.3-.4l141,104Z" fill="#707070"/><path d="M140.586,208.281l-141-208L.414-.281l141,208Z" fill="#707070"/></g>
            <g transform="translate(0 519.5)"><path d="M141,.5H0v-1H141Z" fill="#707070"/><path d="M140.7,104.4-.3.4.3-.4l141,104Z" fill="#707070"/></g>
        </g><path d="M367.677,312.381l-368-312L.323-.381l368,312Z" transform="translate(1031 228.5)" fill="#707070"/><path d="M367.754,208.435l-368-208L.246-.435l368,208Z" transform="translate(1031 332.5)" fill="#707070"/><path d="M367.864,104.481l-368-104L.136-.481l368,104Z" transform="translate(1031 436.5)" fill="#707070"/><path d="M368,.5H0v-1H368Z" transform="translate(1031 540.5)" fill="#707070"/><path d="M.136,104.481l-.272-.962,368-104,.272.962Z" transform="translate(1031 540.5)" fill="#707070"/><path d="M.246,208.435l-.492-.871,368-208,.492.871Z" transform="translate(1031 540.5)" fill="#707070"/><path d="M.323,312.381l-.647-.763,368-312,.647.763Z" transform="translate(1031 540.5)" fill="#707070"/><path d="M.323,312.381l-.647-.763,368-312,.647.763Z" transform="translate(522.5 228.5)" fill="#707070"/><path d="M.246,208.435l-.492-.871,368-208,.492.871Z" transform="translate(522.5 332.5)" fill="#707070"/><path d="M.136,104.481l-.272-.962,368-104,.272.962Z" transform="translate(522.5 436.5)" fill="#707070"/><path d="M368,.5H0v-1H368Z" transform="translate(522.5 540.5)" fill="#707070"/><path d="M367.864,104.481l-368-104L.136-.481l368,104Z" transform="translate(522.5 540.5)" fill="#707070"/><path d="M367.754,208.435l-368-208L.246-.435l368,208Z" transform="translate(522.5 540.5)" fill="#707070"/><path d="M367.677,312.381l-368-312L.323-.381l368,312Z" transform="translate(522.5 540.5)" fill="#707070"/><circle cx="34" cy="34" r="34" transform="translate(488 506)" fill="#00f56e"/><circle cx="34" cy="34" r="34" transform="translate(856 506)" fill="#00f56e"/><circle cx="34" cy="34" r="34" transform="translate(996 506)" fill="#00f56e"/><circle cx="34" cy="34" r="34" transform="translate(856 610)" fill="#00f56e"/><circle cx="34" cy="34" r="34" transform="translate(996 610)" fill="#00f56e"/><circle cx="34" cy="34" r="34" transform="translate(856 714)" fill="#00f56e"/><circle cx="34" cy="34" r="34" transform="translate(996 714)" fill="#00f56e"/><circle cx="34" cy="34" r="34" transform="translate(856 818)" fill="#00f56e"/><circle cx="34" cy="34" r="34" transform="translate(996 818)" fill="#00f56e"/><circle cx="34" cy="34" r="34" transform="translate(856 402)" fill="#00f56e"/><circle cx="34" cy="34" r="34" transform="translate(996 402)" fill="#00f56e"/><circle cx="34" cy="34" r="34" transform="translate(856 298)" fill="#00f56e"/><circle cx="34" cy="34" r="34" transform="translate(996 298)" fill="#00f56e"/><circle cx="34" cy="34" r="34" transform="translate(856 194)" fill="#00f56e"/><circle cx="34" cy="34" r="34" transform="translate(996 194)" fill="#00f56e"/><circle cx="34" cy="34" r="34" transform="translate(1365 506)" fill="#00f56e"/></g>
</svg>
